<?xml version="1.0" encoding="UTF-8"?><svg id="a" xmlns="http://www.w3.org/2000/svg" viewBox="0 0 32.48 32.48"><defs><style>.b{fill:#fff;}</style></defs><path class="b" d="M3.25,0C1.45,0,0,1.45,0,3.25v6.5c0,.9,.73,1.62,1.62,1.62s1.62-.73,1.62-1.62V3.25h6.5c.9,0,1.62-.73,1.62-1.62s-.73-1.62-1.62-1.62H3.25Z"/><path class="b" d="M29.23,0c1.79,0,3.25,1.45,3.25,3.25v6.5c0,.9-.73,1.62-1.62,1.62s-1.62-.73-1.62-1.62V3.25h-6.5c-.9,0-1.62-.73-1.62-1.62s.73-1.62,1.62-1.62h6.5Z"/><path class="b" d="M29.23,32.48c1.79,0,3.25-1.45,3.25-3.25v-6.5c0-.9-.73-1.62-1.62-1.62s-1.62,.73-1.62,1.62v6.5h-6.5c-.9,0-1.62,.73-1.62,1.62s.73,1.62,1.62,1.62h6.5Z"/><path class="b" d="M0,29.23c0,1.79,1.45,3.25,3.25,3.25h6.5c.9,0,1.62-.73,1.62-1.62s-.73-1.62-1.62-1.62H3.25v-6.5c0-.9-.73-1.62-1.62-1.62s-1.62,.73-1.62,1.62v6.5Z"/></svg>