<?xml version="1.0" encoding="UTF-8"?><svg id="a" xmlns="http://www.w3.org/2000/svg" viewBox="0 0 39.48 39.48"><defs><style>.b{fill:#fff;}</style></defs><path class="b" d="M38.73,23.7l-3.01-2.38c-.48-.38-.75-.96-.75-1.57v-.02c0-.61,.27-1.19,.75-1.57l3.01-2.38c.69-.54,.93-1.48,.6-2.29l-1.32-3.19c-.34-.81-1.17-1.3-2.04-1.2l-3.81,.45c-.61,.07-1.21-.15-1.64-.58h-.01c-.43-.45-.65-1.04-.58-1.65l.45-3.81c.1-.87-.39-1.71-1.2-2.04L25.99,.15c-.81-.34-1.75-.09-2.29,.6l-2.38,3.01c-.38,.48-.96,.75-1.57,.75h-.02c-.61,0-1.19-.27-1.57-.75L15.78,.75c-.54-.69-1.48-.93-2.29-.6l-3.19,1.32c-.81,.34-1.3,1.17-1.2,2.04l.45,3.81c.07,.61-.15,1.21-.58,1.64h-.01c-.43,.45-1.03,.67-1.64,.6l-3.81-.45c-.87-.1-1.71,.39-2.04,1.2L.15,13.49c-.34,.81-.09,1.75,.6,2.29l3.01,2.38c.48,.38,.75,.96,.75,1.57v.02c0,.61-.27,1.19-.75,1.57l-3.01,2.38c-.69,.54-.93,1.48-.6,2.29l1.32,3.19c.34,.81,1.17,1.3,2.04,1.2l3.81-.45c.61-.07,1.21,.15,1.64,.58h.01c.43,.45,.65,1.04,.58,1.65l-.45,3.81c-.1,.87,.39,1.71,1.2,2.04l3.19,1.32c.81,.34,1.75,.09,2.29-.6l2.38-3.01c.38-.48,.96-.75,1.57-.75h.02c.61,0,1.19,.27,1.57,.75l2.38,3.01c.54,.69,1.48,.93,2.29,.6l3.19-1.32c.81-.34,1.3-1.17,1.2-2.04l-.45-3.81c-.07-.61,.15-1.21,.58-1.64h.01c.43-.45,1.03-.67,1.64-.6l3.81,.45c.87,.1,1.71-.39,2.04-1.2l1.32-3.19c.34-.81,.09-1.75-.6-2.29Zm-17.04,1.73c-3.06,1.27-6.57-.19-7.83-3.25-1.27-3.06,.19-6.57,3.25-7.83,3.06-1.27,6.57,.19,7.83,3.25,1.27,3.06-.19,6.57-3.25,7.83Z"/></svg>